<svg xmlns="http://www.w3.org/2000/svg" viewBox="0 0 500 500"><g id="freepik--background-complete--inject-18"><path d="M99.4,299.2c-13.68,13.39-16,34.11-13.1,52.26.08.41.72.3.72-.09,0-4.13-.13-8.22-.12-12.3.08-.19.14-.37.22-.55C90.69,335.92,94,333,96,329c2.29-4.5,3.19-9.56,4.93-14.26.17-.45-.31-.32-.63-.08-8.32,6.13-11,12.74-13.36,21.56a72.87,72.87,0,0,1,1.45-13.74c1.8-8.37,5.35-16.68,11.37-22.89A.25.25,0,0,0,99.4,299.2Z" style="fill:#a6a6a6"></path><path d="M102,300.76c2.35.08,3.83,3.84,5.66,4.94a1.77,1.77,0,0,0,2.6-.41c1.82-2.54-.68-5.67-3-7.42,1.68.69,3.07,1.9,4.88,2.25a1.71,1.71,0,0,0,2.2-1.32c.79-3.46-3.54-5-6.52-5.07,1.44-1,5.58-3.73,3.38-5.07s-7.08,2.55-8.66,3.83c-2.33,1.89-5.1,4.71-5.21,7.66C97.15,303.6,100.16,301.48,102,300.76Z" style="fill:#dbdbdb"></path><path d="M101.29,301.34c3-1.37,8.79.6,9.28-.54,1-2.32-3.62-3.91-6.12-4.22,2.3-.62,6.7-1.61,6.57-3.82-.17-2.71-6.75-.38-10.09,2.17-4.19,3.22-4.17,6.33-3.47,6.95C98.41,302.73,100.79,301.56,101.29,301.34Z" style="fill:#ebebeb"></path><path d="M68.24,297.87c14.18,12.86,17.27,33.48,15.07,51.73,0,.41-.7.33-.71-.06-.16-4.13-.19-8.23-.36-12.3l-.23-.55c-3.66-2.45-7.06-5.26-9.24-9.2-2.46-4.4-3.55-9.43-5.47-14.06-.18-.44.3-.33.62-.11,8.55,5.82,11.46,12.32,14.18,21.05a73.62,73.62,0,0,0-2-13.68c-2.12-8.3-6-16.46-12.24-22.44C67.66,298,68,297.64,68.24,297.87Z" style="fill:#a6a6a6"></path><path d="M65.73,299.53c-2.35.17-3.68,4-5.47,5.15a1.76,1.76,0,0,1-2.61-.31c-1.91-2.47.46-5.69,2.74-7.53-1.65.76-3,2-4.79,2.43A1.7,1.7,0,0,1,53.35,298c-.93-3.43,3.35-5.13,6.32-5.32-1.48-.94-5.72-3.51-3.57-4.93s7.17,2.28,8.8,3.5c2.4,1.8,5.28,4.51,5.49,7.46C70.66,302.19,67.57,300.18,65.73,299.53Z" style="fill:#dbdbdb"></path><path d="M66.43,300.08c-3.05-1.25-8.76.94-9.29-.18-1.08-2.28,3.47-4,6-4.45-2.32-.53-6.75-1.36-6.7-3.57.06-2.71,6.73-.64,10.16,1.79,4.31,3.06,4.4,6.16,3.73,6.81C69.37,301.37,66.94,300.29,66.43,300.08Z" style="fill:#ebebeb"></path><path d="M82.74,331.84a139.59,139.59,0,0,0,4.41,20.34.51.51,0,0,0,1-.2c-.93-6.26-2.63-12.42-3.56-18.68a93.45,93.45,0,0,1-1.09-19.19c.59-10.56,3.46-21.8,10.35-30.06.16-.2-.17-.47-.32-.29-13.8,16.09-11.6,35.81-11.59,37.58-2-6.66-4-14.3-11.36-21.08-.32-.29-.57-.15-.51.35C71.38,313,74.81,319.41,82,326,82.18,328,82.43,329.92,82.74,331.84Z" style="fill:#a6a6a6"></path><path d="M94,285.9c2.48-1.1,5.91,2.06,8.36,2.27a2,2,0,0,0,2.49-1.73c.61-3.55-3.55-5.54-6.87-6.17,2.09-.13,4.14.42,6.19-.13a2,2,0,0,0,1.62-2.48c-.91-4-6.19-3.4-9.31-2,1-1.77,3.91-6.68,1-7s-6.06,6.21-7.05,8.34c-1.47,3.13-2.93,7.46-1.55,10.57C90.4,291.28,92.45,287.56,94,285.9Z" style="fill:#dbdbdb"></path><path d="M93.55,286.84c2.44-2.93,9.43-3.8,9.36-5.23-.13-2.9-5.72-2.23-8.46-1.29,2.06-1.8,6.13-5.05,4.88-7.28-1.54-2.72-7.2,3-9.37,7.34-2.73,5.45-1.14,8.66-.11,8.95C91.27,289.74,93.15,287.33,93.55,286.84Z" style="fill:#ebebeb"></path><path d="M73.66,335.56l-6.08,46.5h37c-.76-4.12-7.65-46.55-7.65-46.55Z" style="fill:#dbdbdb"></path><rect x="434.79" y="188.44" width="26.48" height="11.19" transform="translate(896.07 388.07) rotate(180)" style="fill:#ebebeb"></rect><rect x="449.56" y="174.33" width="26.48" height="11.19" transform="translate(925.61 359.85) rotate(180)" style="fill:#ebebeb"></rect><rect x="420.02" y="174.33" width="26.48" height="11.19" transform="translate(866.52 359.85) rotate(180)" style="fill:#ebebeb"></rect><rect x="38.73" y="332.76" width="26.48" height="11.19" transform="translate(103.93 676.71) rotate(180)" style="fill:#ebebeb"></rect><rect x="23.96" y="318.65" width="26.48" height="11.19" transform="translate(74.39 648.49) rotate(180)" style="fill:#ebebeb"></rect><rect x="449.56" y="332.75" width="26.48" height="11.19" transform="translate(925.61 676.69) rotate(180)" style="fill:#ebebeb"></rect><rect x="112.43" y="95.26" width="26.48" height="11.19" style="fill:#ebebeb"></rect><rect x="97.65" y="109.37" width="26.48" height="11.19" style="fill:#ebebeb"></rect></g><g id="freepik--Table--inject-18"><polygon points="57.95 382.02 105.96 381.78 153.97 381.69 250 381.52 346.02 381.69 394.04 381.78 442.05 382.02 394.04 382.27 346.02 382.35 250 382.52 153.97 382.35 105.96 382.26 57.95 382.02" style="fill:#263238"></polygon></g><g id="freepik--error-404--inject-18"><path d="M173.4,239.88h0a9.17,9.17,0,0,0-.82-.83h0a10.7,10.7,0,0,0-.83-.82s0,0,0,0a10.7,10.7,0,0,0-.82-.83h0a9.17,9.17,0,0,0-.83-.82h0c-.26-.29-.54-.57-.82-.83h0a7.93,7.93,0,0,0-.82-.82h0a10.83,10.83,0,0,0-.83-.83h0a7.93,7.93,0,0,0-.82-.82s0,0,0,0a10.7,10.7,0,0,0-.83-.82s0,0,0,0a11.93,11.93,0,0,0-2.93-2.35V147.47c0-.44-.21-.66-.21-1.1a2.35,2.35,0,0,0-.22-1.31c0-.22-.21-.66-.21-.88a10.41,10.41,0,0,0-.45-1.32,1.61,1.61,0,0,1-.43-.88,6.28,6.28,0,0,0-.88-1.09c-.23-.22-.44-.65-.66-.88l-.88-.88c0-.13-.17-.27-.36-.35l-.43-.44-.05,0c0-.14-.16-.27-.35-.36l-.44-.43,0,0c0-.13-.17-.27-.36-.36l-.43-.43,0,0c0-.14-.17-.27-.36-.36l-.43-.44,0,0c0-.13-.17-.27-.36-.36l-.44-.43,0-.05c0-.13-.17-.26-.36-.35l-.43-.44-.05,0c0-.13-.16-.27-.35-.36l-.44-.43,0-.05c0-.13-.17-.26-.36-.35l-.43-.44-.05,0c0-.14-.16-.27-.35-.36l-.44-.43,0,0c0-.13-.17-.27-.36-.35l-.48-.48c0-.22-.43-.44-.66-.44a.21.21,0,0,0-.21-.22c-.44-.21-.67-.44-1.1-.66a13.54,13.54,0,0,1-1.09-.88c-.22,0-.66-.21-.88-.21-.44-.22-1.1-.22-1.32-.45a2.1,2.1,0,0,1-1.1-.21h-3.72a1.37,1.37,0,0,1-.88.21c-.66.23-1.09.23-1.32.45-.43,0-.65.21-.88.66a2.38,2.38,0,0,0-1.31.43c-.21.22-.66.45-.88.66a2.25,2.25,0,0,1-1.09.66,3,3,0,0,1-.66.88c-.22.22-.22.43-.43.43L52,233a11.71,11.71,0,0,0,1.09,16.13,7.4,7.4,0,0,0,.84.84,6.51,6.51,0,0,0,.83.83,7.4,7.4,0,0,0,.84.84,7.31,7.31,0,0,0,.83.84,7.31,7.31,0,0,0,.84.83,7.31,7.31,0,0,0,.83.84,7.31,7.31,0,0,0,.84.83,7.31,7.31,0,0,0,.83.84,7.31,7.31,0,0,0,.84.83,11.38,11.38,0,0,0,1.72,1.59,10.75,10.75,0,0,0,7.45,2.63h60.72v8.31a12,12,0,0,0,3.92,9l0,0c.26.28.53.55.8.8,0,0,0,0,0,0a10.32,10.32,0,0,0,.81.81l0,0c.26.28.53.55.81.8l0,0a10.32,10.32,0,0,0,.81.81l0,0q.39.42.81.81l0,0a8.85,8.85,0,0,0,.81.81l0,0c.25.28.52.55.8.81l0,0a10.32,10.32,0,0,0,.81.81l0,0c.25.27.52.54.8.8l0,0a12.11,12.11,0,0,0,21-8.19V260.83h2.2a12.07,12.07,0,0,0,12.27-12.06A12,12,0,0,0,173.4,239.88Zm-42.92-47v35.44H101.92Z" style="fill:#FFC727"></path><path d="M173.4,239.88h0a9.17,9.17,0,0,0-.82-.83h0a10.7,10.7,0,0,0-.83-.82s0,0,0,0a10.7,10.7,0,0,0-.82-.83h0a9.17,9.17,0,0,0-.83-.82h0c-.26-.29-.54-.57-.82-.83h0a7.93,7.93,0,0,0-.82-.82h0a10.83,10.83,0,0,0-.83-.83h0a7.93,7.93,0,0,0-.82-.82s0,0,0,0a10.7,10.7,0,0,0-.83-.82s0,0,0,0a11.93,11.93,0,0,0-2.93-2.35V147.47c0-.44-.21-.66-.21-1.1a2.35,2.35,0,0,0-.22-1.31c0-.22-.21-.66-.21-.88a10.41,10.41,0,0,0-.45-1.32,1.61,1.61,0,0,1-.43-.88,6.28,6.28,0,0,0-.88-1.09c-.23-.22-.44-.65-.66-.88l-.88-.88c0-.13-.17-.27-.36-.35l-.43-.44-.05,0c0-.14-.16-.27-.35-.36l-.44-.43,0,0c0-.13-.17-.27-.36-.36l-.43-.43,0,0c0-.14-.17-.27-.36-.36l-.43-.44,0,0c0-.13-.17-.27-.36-.36l-.44-.43,0-.05c0-.13-.17-.26-.36-.35l-.43-.44-.05,0c0-.13-.16-.27-.35-.36l-.44-.43,0-.05c0-.13-.17-.26-.36-.35l-.43-.44-.05,0c0-.14-.16-.27-.35-.36l-.44-.43,0,0c0-.13-.17-.27-.36-.35l-.48-.48c0-.22-.43-.44-.66-.44a.21.21,0,0,0-.21-.22c-.44-.21-.67-.44-1.1-.66a13.54,13.54,0,0,1-1.09-.88c-.22,0-.66-.21-.88-.21-.44-.22-1.1-.22-1.32-.45a2.1,2.1,0,0,1-1.1-.21h-3.72a1.37,1.37,0,0,1-.88.21c-.66.23-1.09.23-1.32.45-.43,0-.65.21-.88.66a2.38,2.38,0,0,0-1.31.43c-.21.22-.66.45-.88.66a2.25,2.25,0,0,1-1.09.66,3,3,0,0,1-.66.88c-.22.22-.22.43-.43.43L52,233a11.71,11.71,0,0,0,1.09,16.13,7.4,7.4,0,0,0,.84.84,6.51,6.51,0,0,0,.83.83,7.4,7.4,0,0,0,.84.84,7.31,7.31,0,0,0,.83.84,7.31,7.31,0,0,0,.84.83,7.31,7.31,0,0,0,.83.84,7.31,7.31,0,0,0,.84.83,7.31,7.31,0,0,0,.83.84,7.31,7.31,0,0,0,.84.83,11.38,11.38,0,0,0,1.72,1.59,10.75,10.75,0,0,0,7.45,2.63h60.72v8.31a12,12,0,0,0,3.92,9l0,0c.26.28.53.55.8.8,0,0,0,0,0,0a10.32,10.32,0,0,0,.81.81l0,0c.26.28.53.55.81.8l0,0a10.32,10.32,0,0,0,.81.81l0,0q.39.42.81.81l0,0a8.85,8.85,0,0,0,.81.81l0,0c.25.28.52.55.8.81l0,0a10.32,10.32,0,0,0,.81.81l0,0c.25.27.52.54.8.8l0,0a12.11,12.11,0,0,0,21-8.19V260.83h2.2a12.07,12.07,0,0,0,12.27-12.06A12,12,0,0,0,173.4,239.88Zm-42.92-47v35.44H101.92Z" style="opacity:0.1"></path><path d="M169.06,240.41a12.07,12.07,0,0,1-12.28,12.06h-2.19v16.67a12.06,12.06,0,0,1-24.12,0V252.47H61.4A10.71,10.71,0,0,1,54,249.84,11.73,11.73,0,0,1,52,233L133.1,132.09c.22,0,.22-.21.44-.43a3,3,0,0,0,.66-.88,2.35,2.35,0,0,0,1.1-.66c.21-.22.65-.44.87-.66a2.36,2.36,0,0,1,1.32-.44c.22-.43.44-.65.88-.65.21-.22.65-.22,1.31-.44a1.32,1.32,0,0,0,.88-.22h3.73a1.93,1.93,0,0,0,1.09.22c.22.22.88.22,1.32.44.22,0,.66.22.88.22.43.43.87.65,1.09.87.44.22.66.44,1.1.66a.22.22,0,0,1,.22.22c.22,0,.66.22.66.44l.87.88c.22.22.44.65.66.87a6,6,0,0,1,.88,1.1,1.67,1.67,0,0,0,.44.88,8,8,0,0,1,.43,1.31c0,.22.22.66.22.88a2.38,2.38,0,0,1,.22,1.32c0,.43.22.65.22,1.09v89.24h2.19A12.22,12.22,0,0,1,169.06,240.41Zm-38.59-66.22L86.84,228.35h43.63Z" style="fill:#FFC727"></path><path d="M297.33,160.4A62.28,62.28,0,0,0,288.75,150a4.4,4.4,0,0,0-.38-.37l-.11-.11c-.1-.11-.2-.22-.31-.32-.28-.3-.58-.58-.87-.87l-.08-.07-.3-.3a1.14,1.14,0,0,0-.11-.11c-.1-.11-.2-.22-.31-.32-.28-.3-.58-.58-.87-.87l-.08-.07-.3-.3-.11-.11c-.1-.11-.2-.22-.31-.32-.28-.3-.58-.58-.87-.87l-.08-.07-.3-.3s-.07-.08-.11-.11a3.22,3.22,0,0,0-.32-.32c-.27-.31-.57-.58-.86-.87l-.08-.07a2.83,2.83,0,0,0-.3-.3s-.07-.08-.11-.11c-8.81-9.08-20.29-15.09-33.17-15.09-17.33,0-31.57,10.31-40.79,24.33-9.65,14-14.68,32.25-14.9,52.41.22,20,5.25,38.37,14.9,52.41a65.26,65.26,0,0,0,8.49,10.29l.44.43,0,.05.78.78c.13.15.27.28.4.41l.44.43.05.05.78.78.4.42.44.42a.12.12,0,0,1,.05.05l.78.78.4.42.44.42a.1.1,0,0,1,.05.06l.78.78.41.41.43.42.06.06.78.78c8.66,8.65,19.84,14.46,32.69,14.46,16.88,0,31.35-10.53,40.57-24.35,9.42-14,14.69-32.45,14.69-52.4C312,192.64,306.75,174.44,297.33,160.4ZM268.8,243.27c-6.36,9.42-13.6,13.59-20.39,13.59a20.15,20.15,0,0,1-11.57-4c-.31-.4-.61-.82-.91-1.26-6.14-9.21-10.53-23.24-10.53-38.81,0-15.79,4.39-29.6,10.53-39,6.59-9.21,14-13.59,20.83-13.38a18.35,18.35,0,0,1,11,3.6c.35.47.69.93,1,1.42,6.14,9.43,10.52,23.24,10.52,39C279.32,220,274.94,234.05,268.8,243.27Z" style="fill:#FFC727"></path><path d="M297.33,160.4A62.28,62.28,0,0,0,288.75,150a4.4,4.4,0,0,0-.38-.37l-.11-.11c-.1-.11-.2-.22-.31-.32-.28-.3-.58-.58-.87-.87l-.08-.07-.3-.3a1.14,1.14,0,0,0-.11-.11c-.1-.11-.2-.22-.31-.32-.28-.3-.58-.58-.87-.87l-.08-.07-.3-.3-.11-.11c-.1-.11-.2-.22-.31-.32-.28-.3-.58-.58-.87-.87l-.08-.07-.3-.3s-.07-.08-.11-.11a3.22,3.22,0,0,0-.32-.32c-.27-.31-.57-.58-.86-.87l-.08-.07a2.83,2.83,0,0,0-.3-.3s-.07-.08-.11-.11c-8.81-9.08-20.29-15.09-33.17-15.09-17.33,0-31.57,10.31-40.79,24.33-9.65,14-14.68,32.25-14.9,52.41.22,20,5.25,38.37,14.9,52.41a65.26,65.26,0,0,0,8.49,10.29l.44.43,0,.05.78.78c.13.15.27.28.4.41l.44.43.05.05.78.78.4.42.44.42a.12.12,0,0,1,.05.05l.78.78.4.42.44.42a.1.1,0,0,1,.05.06l.78.78.41.41.43.42.06.06.78.78c8.66,8.65,19.84,14.46,32.69,14.46,16.88,0,31.35-10.53,40.57-24.35,9.42-14,14.69-32.45,14.69-52.4C312,192.64,306.75,174.44,297.33,160.4ZM268.8,243.27c-6.36,9.42-13.6,13.59-20.39,13.59a20.15,20.15,0,0,1-11.57-4c-.31-.4-.61-.82-.91-1.26-6.14-9.21-10.53-23.24-10.53-38.81,0-15.79,4.39-29.6,10.53-39,6.59-9.21,14-13.59,20.83-13.38a18.35,18.35,0,0,1,11,3.6c.35.47.69.93,1,1.42,6.14,9.43,10.52,23.24,10.52,39C279.32,220,274.94,234.05,268.8,243.27Z" style="opacity:0.1"></path><path d="M192.71,204.45c.22-20.17,5.27-38.37,14.91-52.4,9.21-14,23.46-24.34,40.79-24.34,16.88,0,31.35,10.31,40.56,24.34,9.43,14,14.69,32.23,14.69,52.4,0,20-5.26,38.38-14.69,52.41-9.21,13.81-23.68,24.34-40.56,24.34-17.33,0-31.58-10.53-40.79-24.34C198,242.83,192.93,224.41,192.71,204.45Zm86.61,0c0-15.78-4.38-29.6-10.52-39-6.36-9.21-13.59-13.59-20.39-13.37-6.8-.22-14.26,4.16-20.83,13.37-6.14,9.43-10.53,23.25-10.53,39,0,15.57,4.39,29.61,10.53,38.81,6.57,9.43,14,13.6,20.83,13.6s14-4.17,20.39-13.6C274.94,234.06,279.32,220,279.32,204.45Z" style="fill:#FFC727"></path><path d="M446.71,239.88h0c-.26-.29-.54-.57-.82-.83h0c-.27-.29-.55-.56-.83-.82,0,0,0,0,0,0-.27-.29-.54-.57-.82-.83h0c-.27-.29-.55-.57-.83-.82h0c-.27-.29-.54-.57-.82-.83h0c-.27-.29-.55-.57-.83-.82h0c-.27-.29-.55-.57-.82-.83h0a10.57,10.57,0,0,0-.82-.82s0,0,0,0c-.27-.29-.55-.56-.83-.82,0,0,0,0,0,0a11.75,11.75,0,0,0-2.94-2.35V147.47c0-.44-.21-.66-.21-1.1a2.35,2.35,0,0,0-.22-1.31c0-.22-.21-.66-.21-.88a10.41,10.41,0,0,0-.45-1.32,1.69,1.69,0,0,1-.43-.88,5.83,5.83,0,0,0-.88-1.09c-.23-.22-.44-.65-.66-.88l-.88-.88c0-.13-.17-.27-.36-.35l-.43-.44-.05,0c0-.14-.16-.27-.35-.36l-.44-.43,0,0c0-.13-.17-.27-.36-.36l-.43-.43,0,0c0-.14-.17-.27-.36-.36l-.43-.44,0,0c0-.13-.17-.27-.36-.36l-.44-.43,0-.05c0-.13-.17-.26-.36-.35l-.43-.44-.05,0c0-.13-.16-.27-.35-.36l-.44-.43,0-.05c0-.13-.17-.26-.36-.35l-.43-.44-.05,0c0-.14-.16-.27-.35-.36l-.44-.43,0,0c0-.13-.17-.27-.36-.35l-.48-.48c0-.22-.43-.44-.66-.44a.22.22,0,0,0-.22-.22c-.43-.21-.66-.44-1.09-.66a13.54,13.54,0,0,1-1.09-.88c-.22,0-.66-.21-.88-.21-.44-.22-1.09-.22-1.32-.45a2.08,2.08,0,0,1-1.1-.21h-3.72a1.37,1.37,0,0,1-.88.21c-.66.23-1.09.23-1.32.45-.43,0-.65.21-.88.66a2.4,2.4,0,0,0-1.31.43c-.21.22-.66.45-.87.66a2.35,2.35,0,0,1-1.1.66,3.18,3.18,0,0,1-.66.88c-.22.22-.22.43-.43.43L325.28,233a11.71,11.71,0,0,0,1.09,16.13,7.4,7.4,0,0,0,.84.84,6.51,6.51,0,0,0,.83.83,7.4,7.4,0,0,0,.84.84,295.81,295.81,0,0,1,2.5,2.51,98.61,98.61,0,0,1,1.67,1.67,7.31,7.31,0,0,0,.84.83,11.38,11.38,0,0,0,1.72,1.59,10.75,10.75,0,0,0,7.45,2.63h60.72v8.31a12,12,0,0,0,3.92,9s0,0,0,0c.26.29.54.56.81.81l0,0c.25.28.52.54.8.8l0,0a10.42,10.42,0,0,0,.82.81l0,0c.26.28.52.54.8.8l0,0c.26.29.54.56.82.82l0,0c.26.28.52.55.8.8l0,0c.26.29.54.56.82.82l0,0c.26.28.52.55.8.8l0,0a10.45,10.45,0,0,0,.81.82l0,0a12.11,12.11,0,0,0,21-8.2V260.83h2.2a12.08,12.08,0,0,0,12.29-12.06A12,12,0,0,0,446.71,239.88Zm-42.93-47v35.44H375.22Z" style="fill:#FFC727"></path><path d="M446.71,239.88h0c-.26-.29-.54-.57-.82-.83h0c-.27-.29-.55-.56-.83-.82,0,0,0,0,0,0-.27-.29-.54-.57-.82-.83h0c-.27-.29-.55-.57-.83-.82h0c-.27-.29-.54-.57-.82-.83h0c-.27-.29-.55-.57-.83-.82h0c-.27-.29-.55-.57-.82-.83h0a10.57,10.57,0,0,0-.82-.82s0,0,0,0c-.27-.29-.55-.56-.83-.82,0,0,0,0,0,0a11.75,11.75,0,0,0-2.94-2.35V147.47c0-.44-.21-.66-.21-1.1a2.35,2.35,0,0,0-.22-1.31c0-.22-.21-.66-.21-.88a10.41,10.41,0,0,0-.45-1.32,1.69,1.69,0,0,1-.43-.88,5.83,5.83,0,0,0-.88-1.09c-.23-.22-.44-.65-.66-.88l-.88-.88c0-.13-.17-.27-.36-.35l-.43-.44-.05,0c0-.14-.16-.27-.35-.36l-.44-.43,0,0c0-.13-.17-.27-.36-.36l-.43-.43,0,0c0-.14-.17-.27-.36-.36l-.43-.44,0,0c0-.13-.17-.27-.36-.36l-.44-.43,0-.05c0-.13-.17-.26-.36-.35l-.43-.44-.05,0c0-.13-.16-.27-.35-.36l-.44-.43,0-.05c0-.13-.17-.26-.36-.35l-.43-.44-.05,0c0-.14-.16-.27-.35-.36l-.44-.43,0,0c0-.13-.17-.27-.36-.35l-.48-.48c0-.22-.43-.44-.66-.44a.22.22,0,0,0-.22-.22c-.43-.21-.66-.44-1.09-.66a13.54,13.54,0,0,1-1.09-.88c-.22,0-.66-.21-.88-.21-.44-.22-1.09-.22-1.32-.45a2.08,2.08,0,0,1-1.1-.21h-3.72a1.37,1.37,0,0,1-.88.21c-.66.23-1.09.23-1.32.45-.43,0-.65.21-.88.66a2.4,2.4,0,0,0-1.31.43c-.21.22-.66.45-.87.66a2.35,2.35,0,0,1-1.1.66,3.18,3.18,0,0,1-.66.88c-.22.22-.22.43-.43.43L325.28,233a11.71,11.71,0,0,0,1.09,16.13,7.4,7.4,0,0,0,.84.84,6.51,6.51,0,0,0,.83.83,7.4,7.4,0,0,0,.84.84,295.81,295.81,0,0,1,2.5,2.51,98.61,98.61,0,0,1,1.67,1.67,7.31,7.31,0,0,0,.84.83,11.38,11.38,0,0,0,1.72,1.59,10.75,10.75,0,0,0,7.45,2.63h60.72v8.31a12,12,0,0,0,3.92,9s0,0,0,0c.26.29.54.56.81.81l0,0c.25.28.52.54.8.8l0,0a10.42,10.42,0,0,0,.82.81l0,0c.26.28.52.54.8.8l0,0c.26.29.54.56.82.82l0,0c.26.28.52.55.8.8l0,0c.26.29.54.56.82.82l0,0c.26.28.52.55.8.8l0,0a10.45,10.45,0,0,0,.81.82l0,0a12.11,12.11,0,0,0,21-8.2V260.83h2.2a12.08,12.08,0,0,0,12.29-12.06A12,12,0,0,0,446.71,239.88Zm-42.93-47v35.44H375.22Z" style="opacity:0.1"></path><path d="M442.36,240.41a12.07,12.07,0,0,1-12.28,12.06h-2.19v16.67a12.06,12.06,0,0,1-24.12,0V252.47H334.7a10.71,10.71,0,0,1-7.45-2.63,11.73,11.73,0,0,1-2-16.88L406.4,132.09c.22,0,.22-.21.44-.43a3,3,0,0,0,.66-.88,2.35,2.35,0,0,0,1.1-.66c.22-.22.66-.44.88-.66a2.3,2.3,0,0,1,1.31-.44c.22-.43.44-.65.87-.65.22-.22.66-.22,1.32-.44a1.32,1.32,0,0,0,.88-.22h3.73a1.93,1.93,0,0,0,1.09.22c.22.22.88.22,1.32.44.22,0,.66.22.88.22.44.43.87.65,1.09.87.44.22.66.44,1.1.66a.22.22,0,0,1,.22.22c.22,0,.65.22.65.44l.88.88c.22.22.44.65.66.87a6,6,0,0,1,.88,1.1,1.67,1.67,0,0,0,.44.88,9,9,0,0,1,.44,1.31c0,.22.21.66.21.88a2.38,2.38,0,0,1,.22,1.32c0,.43.22.65.22,1.09v89.24h2.19A12.22,12.22,0,0,1,442.36,240.41Zm-38.59-66.22-43.63,54.16h43.63Z" style="fill:#FFC727"></path><path d="M167.49,103.68H165V108a1.11,1.11,0,0,1-2.22,0V96.22a1.1,1.1,0,0,1,1.1-1.1h3.58a4.28,4.28,0,1,1,0,8.56ZM165,101.46h2.46a2.06,2.06,0,1,0,0-4.12H165Z" style="fill:#263238"></path><path d="M180.21,105.83h-4.86l-1,2.6a1.12,1.12,0,0,1-1,.7,1.16,1.16,0,0,1-.38-.06,1.13,1.13,0,0,1-.66-1.44l4.42-11.79a1.12,1.12,0,0,1,1.06-.7,1.1,1.1,0,0,1,1.06.7l4.42,11.79a1.13,1.13,0,0,1-.66,1.44,1.12,1.12,0,0,1-1.4-.64Zm-.82-2.2-1.62-4.31-1.62,4.31Z" style="fill:#263238"></path><path d="M184.73,101.94a7.29,7.29,0,0,1,7.38-7.22,7.39,7.39,0,0,1,4.56,1.56,1.15,1.15,0,0,1,.22,1.62,1.16,1.16,0,0,1-1.62.18A5.2,5.2,0,0,0,192.11,97a5,5,0,0,0-3.6,1.46,4.75,4.75,0,0,0,0,6.93,5,5,0,0,0,3.6,1.46,5.52,5.52,0,0,0,2.74-.76v-2.75H192a1.15,1.15,0,0,1-1.14-1.14,1.12,1.12,0,0,1,1.14-1.12h4a1.13,1.13,0,0,1,1.16,1.12v4.43a1.72,1.72,0,0,1-.06.34s0,.06,0,.1v0a1,1,0,0,1-.38.48,7.38,7.38,0,0,1-4.54,1.56A7.27,7.27,0,0,1,184.73,101.94Z" style="fill:#263238"></path><path d="M201.63,108V96.22a1.08,1.08,0,0,1,1.1-1.1h6.54a1.11,1.11,0,0,1,1.1,1.1,1.13,1.13,0,0,1-1.1,1.12h-5.42V101h4.66a1.11,1.11,0,0,1,0,2.22h-4.66v3.69h5.42a1.11,1.11,0,0,1,0,2.22h-6.48s0,0,0,0l0,0A1.1,1.1,0,0,1,201.63,108Z" style="fill:#263238"></path><path d="M221.69,108a1.09,1.09,0,1,1-2.18,0V96.38a1.08,1.08,0,0,1,.44-.92,1.1,1.1,0,0,1,1.52.24l6.46,9V96.4A1.09,1.09,0,0,1,229,95.32a1.11,1.11,0,0,1,1.1,1.08V108a1.11,1.11,0,0,1-1.1,1.1,1.08,1.08,0,0,1-.82-.4.53.53,0,0,1-.1-.12l-6.4-8.89Z" style="fill:#263238"></path><path d="M245,96.86A7.36,7.36,0,0,1,245,107a6.55,6.55,0,0,1-4.78,2.14,6.75,6.75,0,0,1-4.9-2.14,7.47,7.47,0,0,1,0-10.13,6.67,6.67,0,0,1,4.9-2.14A6.48,6.48,0,0,1,245,96.86Zm-.26,5.06a5.18,5.18,0,0,0-1.36-3.5,4.32,4.32,0,0,0-6.4,0,5.09,5.09,0,0,0-1.36,3.5,5,5,0,0,0,1.36,3.49,4.28,4.28,0,0,0,6.4,0A5.12,5.12,0,0,0,244.69,101.92Z" style="fill:#263238"></path><path d="M258.37,97.34h-3.18V108a1.08,1.08,0,0,1-1.1,1.1A1.1,1.1,0,0,1,253,108V97.34h-3.16a1.11,1.11,0,0,1-1.1-1.12,1.08,1.08,0,0,1,1.1-1.1h8.54a1.1,1.1,0,0,1,1.1,1.1A1.13,1.13,0,0,1,258.37,97.34Z" style="fill:#263238"></path><path d="M268.77,108V96.22a1.1,1.1,0,0,1,1.1-1.1h6.54a1.11,1.11,0,0,1,0,2.22H271V101h4.66a1.11,1.11,0,0,1,0,2.22H271V108a1.11,1.11,0,0,1-1.12,1.1A1.1,1.1,0,0,1,268.77,108Z" style="fill:#263238"></path><path d="M291.51,96.86a7.36,7.36,0,0,1,0,10.13,6.55,6.55,0,0,1-4.78,2.14,6.75,6.75,0,0,1-4.9-2.14,7.47,7.47,0,0,1,0-10.13,6.67,6.67,0,0,1,4.9-2.14A6.48,6.48,0,0,1,291.51,96.86Zm-.26,5.06a5.18,5.18,0,0,0-1.36-3.5,4.32,4.32,0,0,0-6.4,0,5.09,5.09,0,0,0-1.36,3.5,5,5,0,0,0,1.36,3.49,4.28,4.28,0,0,0,6.4,0A5.12,5.12,0,0,0,291.25,101.92Z" style="fill:#263238"></path><path d="M302.37,109.13a5.77,5.77,0,0,1-5.78-5.79V96.22a1.08,1.08,0,0,1,1.1-1.1,1.11,1.11,0,0,1,1.12,1.1v7.12a3.56,3.56,0,1,0,7.12,0V96.22a1.1,1.1,0,0,1,1.12-1.1,1.08,1.08,0,0,1,1.1,1.1v7.12A5.78,5.78,0,0,1,302.37,109.13Z" style="fill:#263238"></path><path d="M314.75,108a1.09,1.09,0,1,1-2.18,0V96.38a1.08,1.08,0,0,1,.44-.92,1.1,1.1,0,0,1,1.52.24l6.46,9V96.4a1.09,1.09,0,0,1,1.08-1.08,1.11,1.11,0,0,1,1.1,1.08V108a1.11,1.11,0,0,1-1.1,1.1,1.08,1.08,0,0,1-.82-.4.53.53,0,0,1-.1-.12l-6.4-8.89Z" style="fill:#263238"></path><path d="M327,108V96.22a1.08,1.08,0,0,1,1.1-1.1h2.36a7,7,0,0,1,0,14h-2.36A1.1,1.1,0,0,1,327,108Zm2.22-1.12h1.24a4.79,4.79,0,0,0,0-9.57h-1.24Z" style="fill:#263238"></path><rect x="180.28" y="420.58" width="139.43" height="32.11" style="fill:#FFC727"></rect><path d="M218.35,436.66a7.29,7.29,0,0,1,7.38-7.23,7.39,7.39,0,0,1,4.56,1.56,1.15,1.15,0,0,1,.22,1.62,1.16,1.16,0,0,1-1.62.18,5.2,5.2,0,0,0-3.16-1.08,5,5,0,0,0-3.6,1.46,4.75,4.75,0,0,0,0,6.93,5,5,0,0,0,3.6,1.46,5.52,5.52,0,0,0,2.74-.76v-2.74h-2.86a1.15,1.15,0,0,1-1.14-1.14,1.13,1.13,0,0,1,1.14-1.13h4a1.14,1.14,0,0,1,1.16,1.13v4.42a1.72,1.72,0,0,1-.06.34l0,.1v0a1,1,0,0,1-.38.48,7.38,7.38,0,0,1-4.54,1.56A7.27,7.27,0,0,1,218.35,436.66Z" style="fill:#fff"></path><path d="M246.29,431.57a7.36,7.36,0,0,1,0,10.13,6.55,6.55,0,0,1-4.78,2.14,6.75,6.75,0,0,1-4.9-2.14,7.47,7.47,0,0,1,0-10.13,6.67,6.67,0,0,1,4.9-2.14A6.48,6.48,0,0,1,246.29,431.57Zm-.26,5.07a5.21,5.21,0,0,0-1.36-3.51,4.32,4.32,0,0,0-6.4,0,5.11,5.11,0,0,0-1.36,3.51,5,5,0,0,0,1.36,3.48,4.28,4.28,0,0,0,6.4,0A5.09,5.09,0,0,0,246,436.64Z" style="fill:#fff"></path><path d="M258.25,442.74V430.93a1.1,1.1,0,0,1,1.1-1.1h2.84a3.81,3.81,0,0,1,3,6.09,4.28,4.28,0,0,1-2.26,7.92h-3.54a0,0,0,0,1,0,0s0,0-.06,0A1.11,1.11,0,0,1,258.25,442.74Zm2.22-7.49h1.72a1.6,1.6,0,0,0,1.58-1.62,1.57,1.57,0,0,0-1.58-1.58h-1.72Zm0,6.37H263a2.07,2.07,0,0,0,0-4.14h-2.5Z" style="fill:#fff"></path><path d="M276.87,440.54H272l-1,2.6a1.12,1.12,0,0,1-1,.7,1.16,1.16,0,0,1-.38-.06,1.13,1.13,0,0,1-.66-1.44l4.42-11.79a1.12,1.12,0,0,1,1.06-.7,1.1,1.1,0,0,1,1.06.7l4.42,11.79a1.13,1.13,0,0,1-.66,1.44,1.12,1.12,0,0,1-1.4-.64Zm-.82-2.2-1.62-4.3-1.62,4.3Z" style="fill:#fff"></path><path d="M281.23,436.64a7.34,7.34,0,0,1,7.34-7.21,7.48,7.48,0,0,1,4.62,1.56,1.15,1.15,0,0,1-1.4,1.82,5,5,0,0,0-3.22-1.1,5.29,5.29,0,0,0-3.6,1.44,5,5,0,0,0-1.46,3.49,4.86,4.86,0,0,0,1.46,3.48,5.29,5.29,0,0,0,3.6,1.44,5,5,0,0,0,3.22-1.1,1.21,1.21,0,0,1,1.6.22,1.18,1.18,0,0,1-.2,1.6,7.48,7.48,0,0,1-4.62,1.56A7.32,7.32,0,0,1,281.23,436.64Z" style="fill:#fff"></path><path d="M297.27,442.74V431a1.1,1.1,0,0,1,2.2,0v5.75l6.48-6.51a1.09,1.09,0,0,1,1.56,0,1.12,1.12,0,0,1,0,1.56l-4.4,4.38,4.44,5.83a1.07,1.07,0,0,1-.16,1.54,1,1,0,0,1-.7.26,1.08,1.08,0,0,1-.82-.4l-4.32-5.66-2.08,2.12v2.84a1.1,1.1,0,1,1-2.2,0Z" style="fill:#fff"></path><polygon points="200.98 441.25 196.06 436.63 200.98 432.02 202 433.11 198.23 436.63 202 440.16 200.98 441.25" style="fill:#fff"></polygon><path d="M200.16,444.62a8,8,0,1,1,8-8A8,8,0,0,1,200.16,444.62Zm0-14.48a6.5,6.5,0,1,0,6.49,6.5A6.51,6.51,0,0,0,200.16,430.14Z" style="fill:#fff"></path></g><g id="freepik--speech-bubble--inject-18"><path d="M412.63,130.91a30.52,30.52,0,0,1-51,19.31l-15.28,2.25L354,139.26a30.54,30.54,0,1,1,58.65-8.35Z" style="fill:#fff"></path><path d="M412.63,130.91a30.66,30.66,0,0,1-6.16,15.48,28,28,0,0,1-6,5.91,31,31,0,0,1-15.59,6.06,28.56,28.56,0,0,1-4.24.08,25.92,25.92,0,0,1-4.22-.44,30.81,30.81,0,0,1-15.11-7.45l.36.11L346.42,153l-1.11.17.56-1,7.6-13.23,0,.52a30.91,30.91,0,0,1,38.29-41,31.26,31.26,0,0,1,11.77,7.22A30.66,30.66,0,0,1,412.63,130.91Zm0,0a30.2,30.2,0,0,0-34.62-33,30.06,30.06,0,0,0-12.62,5,31.4,31.4,0,0,0-9.13,10,30.16,30.16,0,0,0-3.88,12.92,30.69,30.69,0,0,0,2.15,13.3l.11.28-.14.25-7.69,13.18-.55-.81,15.29-2.14.21,0,.15.14a30.16,30.16,0,0,0,14.63,7.53,26.17,26.17,0,0,0,4.14.51,30.69,30.69,0,0,0,4.18,0,30,30,0,0,0,8.15-1.8,28.38,28.38,0,0,0,7.37-4,33,33,0,0,0,3.22-2.69,34.59,34.59,0,0,0,2.78-3.15A30.68,30.68,0,0,0,412.63,130.91Z" style="fill:#263238"></path><path d="M367.33,142a3,3,0,0,1,3-3.14,3.14,3.14,0,0,1,0,6.28A3,3,0,0,1,367.33,142Zm1.27-7.24-.71-24.31h4.86L372,134.73Z" style="fill:#FFC727"></path><path d="M379,142a3,3,0,0,1,3-3.14,3.14,3.14,0,0,1,0,6.28A3,3,0,0,1,379,142Zm1.27-7.24-.71-24.31h4.86l-.71,24.31Z" style="fill:#FFC727"></path><path d="M390.63,142a3,3,0,0,1,3-3.14,3.14,3.14,0,0,1,0,6.28A3,3,0,0,1,390.63,142Zm1.27-7.24-.71-24.31h4.86l-.71,24.31Z" style="fill:#FFC727"></path></g></svg>