<svg xmlns="http://www.w3.org/2000/svg" viewBox="0 0 500 500"><g id="freepik--background-complete--inject-21"><rect x="416.78" y="398.49" width="33.12" height="0.25" style="fill:#ebebeb"></rect><rect x="322.53" y="401.21" width="8.69" height="0.25" style="fill:#ebebeb"></rect><rect x="396.59" y="389.21" width="19.19" height="0.25" style="fill:#ebebeb"></rect><rect x="52.46" y="390.89" width="43.19" height="0.25" style="fill:#ebebeb"></rect><rect x="104.56" y="390.89" width="6.33" height="0.25" style="fill:#ebebeb"></rect><rect x="131.47" y="395.11" width="93.68" height="0.25" style="fill:#ebebeb"></rect><path d="M237,337.8H43.92a5.71,5.71,0,0,1-5.71-5.71V60.66A5.71,5.71,0,0,1,43.92,55H237a5.71,5.71,0,0,1,5.71,5.71V332.09A5.71,5.71,0,0,1,237,337.8ZM43.92,55.2a5.47,5.47,0,0,0-5.46,5.46V332.09a5.47,5.47,0,0,0,5.46,5.46H237a5.47,5.47,0,0,0,5.46-5.46V60.66A5.47,5.47,0,0,0,237,55.2Z" style="fill:#ebebeb"></path><path d="M453.31,337.8H260.21a5.72,5.72,0,0,1-5.71-5.71V60.66A5.72,5.72,0,0,1,260.21,55h193.1A5.71,5.71,0,0,1,459,60.66V332.09A5.71,5.71,0,0,1,453.31,337.8ZM260.21,55.2a5.47,5.47,0,0,0-5.46,5.46V332.09a5.47,5.47,0,0,0,5.46,5.46h193.1a5.47,5.47,0,0,0,5.46-5.46V60.66a5.47,5.47,0,0,0-5.46-5.46Z" style="fill:#ebebeb"></path><rect y="382.4" width="500" height="0.25" style="fill:#ebebeb"></rect><path d="M203.12,319.61H82.52V101.3l1.23-1.18a84.87,84.87,0,0,1,59.07-23.73h0a84.85,84.85,0,0,1,59.07,23.73l1.23,1.18Zm-112.6-8h104.6V104.74a77.38,77.38,0,0,0-104.6,0Z" style="fill:#e0e0e0"></path><polygon points="196.64 140.17 196.64 134.17 145.82 134.17 145.82 83.35 139.82 83.35 139.82 134.17 89 134.17 89 140.17 139.82 140.17 139.82 194.98 89 194.98 89 200.98 139.82 200.98 139.82 255.8 89 255.8 89 261.8 139.82 261.8 139.82 312.61 145.82 312.61 145.82 261.8 196.64 261.8 196.64 255.8 145.82 255.8 145.82 200.98 196.64 200.98 196.64 194.98 145.82 194.98 145.82 140.17 196.64 140.17" style="fill:#f5f5f5"></polygon><path d="M207.12,323.61H78.52V99.67l1.17-1.17A89.38,89.38,0,0,1,206,98.5l1.17,1.17Zm-120.6-8h112.6V103a81.37,81.37,0,0,0-112.6,0Z" style="fill:#ebebeb"></path><path d="M415.68,319.61H295.08V101.3l1.23-1.18a84.87,84.87,0,0,1,59.07-23.73h0a84.87,84.87,0,0,1,59.08,23.73l1.22,1.18Zm-112.6-8h104.6V104.74a77.38,77.38,0,0,0-104.6,0Z" style="fill:#e0e0e0"></path><polygon points="409.2 140.17 409.2 134.17 358.38 134.17 358.38 83.35 352.38 83.35 352.38 134.17 301.57 134.17 301.57 140.17 352.38 140.17 352.38 194.98 301.57 194.98 301.57 200.98 352.38 200.98 352.38 255.8 301.57 255.8 301.57 261.8 352.38 261.8 352.38 312.61 358.38 312.61 358.38 261.8 409.2 261.8 409.2 255.8 358.38 255.8 358.38 200.98 409.2 200.98 409.2 194.98 358.38 194.98 358.38 140.17 409.2 140.17" style="fill:#f5f5f5"></polygon><path d="M419.68,323.61H291.08V99.67l1.18-1.17a89.37,89.37,0,0,1,126.25,0l1.17,1.17Zm-120.6-8h112.6V103a81.37,81.37,0,0,0-112.6,0Z" style="fill:#ebebeb"></path><rect x="249.86" y="364.68" width="22.72" height="6.1" rx="1.32" transform="translate(522.44 735.46) rotate(180)" style="fill:#ebebeb"></rect><rect x="226.03" y="364.68" width="22.72" height="6.1" rx="1.32" transform="translate(474.78 735.46) rotate(180)" style="fill:#f5f5f5"></rect><rect x="236.64" y="357.13" width="22.72" height="6.1" rx="1.32" transform="translate(496.01 720.35) rotate(180)" style="fill:#f5f5f5"></rect><rect x="212.86" y="357.13" width="22.72" height="6.1" rx="1.32" transform="translate(448.45 720.35) rotate(180)" style="fill:#f0f0f0"></rect><rect x="81.19" y="360.91" width="22.72" height="6.1" rx="1.32" transform="translate(185.11 727.91) rotate(180)" style="fill:#f0f0f0"></rect><rect x="57.36" y="360.91" width="22.72" height="6.1" rx="1.32" transform="translate(137.45 727.91) rotate(180)" style="fill:#f5f5f5"></rect><rect x="67.98" y="353.35" width="22.72" height="6.1" rx="1.32" transform="translate(158.68 712.8) rotate(180)" style="fill:#f5f5f5"></rect><rect x="44.2" y="353.35" width="22.72" height="6.1" rx="1.32" transform="translate(111.12 712.8) rotate(180)" style="fill:#f5f5f5"></rect><rect x="66.83" y="72.89" width="22.72" height="6.1" rx="1.32" transform="translate(156.38 151.87) rotate(180)" style="fill:#f5f5f5"></rect><rect x="77.44" y="65.33" width="22.72" height="6.1" rx="1.32" transform="translate(177.6 136.76) rotate(180)" style="fill:#f5f5f5"></rect><rect x="53.66" y="65.33" width="22.72" height="6.1" rx="1.32" transform="translate(130.04 136.76) rotate(180)" style="fill:#f0f0f0"></rect><rect x="426.82" y="79.71" width="22.72" height="6.1" rx="1.32" transform="translate(876.37 165.53) rotate(180)" style="fill:#f0f0f0"></rect><rect x="413.61" y="72.16" width="22.72" height="6.1" rx="1.32" transform="translate(849.93 150.42) rotate(180)" style="fill:#f5f5f5"></rect><rect x="297.03" y="323.43" width="59.83" height="59.83" style="fill:#f5f5f5"></rect><rect x="356.87" y="323.43" width="36.75" height="59.83" style="fill:#ebebeb"></rect><polygon points="371.57 323.43 371.57 346.08 372.52 345.22 374.2 346.27 375.67 345.22 377.56 346.27 379.55 345.22 380.81 346.27 382.27 345.5 382.27 323.43 371.57 323.43" style="fill:#e0e0e0"></polygon><polygon points="371.57 323.43 371.57 346.08 372.52 345.22 374.2 346.27 375.67 345.22 377.56 346.27 379.55 345.22 380.81 346.27 382.27 345.5 382.27 323.43 371.57 323.43" style="fill:#e0e0e0;opacity:0.7000000000000001"></polygon><rect x="377.12" y="347.64" width="35.63" height="35.63" style="fill:#f5f5f5"></rect><rect x="412.74" y="347.64" width="21.88" height="35.63" style="fill:#e6e6e6"></rect><polygon points="405.94 357.65 370.31 357.65 377.12 347.64 412.74 347.64 405.94 357.65" style="fill:#e6e6e6"></polygon><polygon points="419.19 357.65 441.07 357.65 434.63 347.64 412.74 347.64 419.19 357.65" style="fill:#f5f5f5"></polygon><rect x="260.58" y="347.64" width="35.63" height="35.63" style="fill:#f5f5f5"></rect><rect x="296.2" y="347.64" width="21.88" height="35.63" style="fill:#e6e6e6"></rect><polygon points="289.4 338.7 253.77 338.7 260.58 347.64 296.2 347.64 289.4 338.7" style="fill:#e6e6e6"></polygon><polygon points="302.65 338.7 324.53 338.7 318.09 347.64 296.2 347.64 302.65 338.7" style="fill:#ebebeb"></polygon></g><g id="freepik--Shadow--inject-21"><ellipse id="freepik--path--inject-21" cx="245.18" cy="412.39" rx="193.89" ry="11.32" style="fill:#f5f5f5"></ellipse></g><g id="freepik--Process--inject-21"><rect x="182.74" y="229.29" width="138.71" height="10.04" rx="3.05" style="fill:#407BFF"></rect><rect x="182.74" y="229.29" width="138.71" height="10.04" rx="3.05" style="fill:#fff;opacity:0.8"></rect><path d="M318.39,244.81H185.79a8.54,8.54,0,0,1-8.53-8.53v-3.94a8.54,8.54,0,0,1,8.53-8.53h132.6a8.55,8.55,0,0,1,8.54,8.53v3.94A8.55,8.55,0,0,1,318.39,244.81Zm-132.6-19.17a6.72,6.72,0,0,0-6.71,6.7v3.94a6.71,6.71,0,0,0,6.71,6.7h132.6a6.71,6.71,0,0,0,6.71-6.7v-3.94a6.72,6.72,0,0,0-6.71-6.7Z" style="fill:#263238"></path><g style="opacity:0.30000000000000004"><path d="M318.39,244.81H185.79a8.54,8.54,0,0,1-8.53-8.53v-3.94a8.54,8.54,0,0,1,8.53-8.53h132.6a8.55,8.55,0,0,1,8.54,8.53v3.94A8.55,8.55,0,0,1,318.39,244.81Zm-132.6-19.17a6.72,6.72,0,0,0-6.71,6.7v3.94a6.71,6.71,0,0,0,6.71,6.7h132.6a6.71,6.71,0,0,0,6.71-6.7v-3.94a6.72,6.72,0,0,0-6.71-6.7Z" style="fill:#fff"></path></g><path d="M287.91,229.29H185.79a3.06,3.06,0,0,0-3,3.05v3.94a3.06,3.06,0,0,0,3,3.05h92.08Z" style="fill:#407BFF"></path><path d="M380.39,244.81H340.52a2.62,2.62,0,0,1-1.91-.82l-7.54-7.94a2.63,2.63,0,0,1,0-3.63l7.52-7.81a2.65,2.65,0,0,1,1.89-.8h39.89a2.63,2.63,0,0,1,2.63,2.63v15.75A2.62,2.62,0,0,1,380.39,244.81Z" style="fill:#407BFF"></path><path d="M352.44,228.09V230l-4.65,10.63h-3.15l4.49-10.15H345v2h-2.57v-4.4Z" style="fill:#fff"></path><path d="M363.07,238.24v2.36h-9.46v-1.87l4.83-4.56a5.3,5.3,0,0,0,1-1.26,2.28,2.28,0,0,0,.27-1,1.38,1.38,0,0,0-.51-1.15,2.37,2.37,0,0,0-1.5-.4,3.41,3.41,0,0,0-1.48.31,2.86,2.86,0,0,0-1.11.94L353,230.2a4.92,4.92,0,0,1,2-1.71,6.76,6.76,0,0,1,2.95-.61,6.14,6.14,0,0,1,2.44.45,3.78,3.78,0,0,1,1.63,1.29,3.29,3.29,0,0,1,.58,2,4.31,4.31,0,0,1-.43,1.91,7.67,7.67,0,0,1-1.66,2l-2.88,2.71Z" style="fill:#fff"></path><path d="M365.1,233.91a4.06,4.06,0,0,1,0-5,3.14,3.14,0,0,1,4.48,0,4.13,4.13,0,0,1,0,5,3.14,3.14,0,0,1-4.48,0Zm3.2-1a2.61,2.61,0,0,0,.35-1.48,2.64,2.64,0,0,0-.35-1.49,1.16,1.16,0,0,0-1.91,0,3.28,3.28,0,0,0,0,3,1.16,1.16,0,0,0,1.91,0Zm6.5-4.79h2.12l-8.54,12.51h-2.13Zm-.57,12.24a2.94,2.94,0,0,1-1.1-1.21,4,4,0,0,1-.39-1.82,4.1,4.1,0,0,1,.39-1.83,2.91,2.91,0,0,1,1.1-1.2,3.08,3.08,0,0,1,1.6-.42,2.94,2.94,0,0,1,2.25.93,4.11,4.11,0,0,1,0,5,3,3,0,0,1-2.25.94A3.08,3.08,0,0,1,374.23,240.33Zm2.56-1.56a3.28,3.28,0,0,0,0-3,1.1,1.1,0,0,0-1-.51,1.13,1.13,0,0,0-.95.5,2.64,2.64,0,0,0-.35,1.49,2.61,2.61,0,0,0,.35,1.48,1.13,1.13,0,0,0,.95.5A1.1,1.1,0,0,0,376.79,238.77Z" style="fill:#fff"></path></g><g id="freepik--gear-3--inject-21"><path d="M424.67,137.4l-8.75.14a45,45,0,0,0-3.92-6.77l4.5-7.51a52,52,0,0,0-7.78-7.78l-7.51,4.5a44.27,44.27,0,0,0-6.78-3.92l.15-8.76A52.36,52.36,0,0,0,384,104.45l-4.26,7.67c-1.29-.11-2.59-.18-3.91-.18s-2.62.07-3.91.18l-4.26-7.67A52.54,52.54,0,0,0,357,107.3l.15,8.76a44.17,44.17,0,0,0-6.77,3.92l-7.51-4.5a52.57,52.57,0,0,0-7.79,7.78l4.51,7.51a43.36,43.36,0,0,0-3.92,6.77l-8.76-.14A52.36,52.36,0,0,0,324,148l7.67,4.25c-.12,1.29-.19,2.6-.19,3.91s.07,2.63.19,3.91L324,164.36A52.36,52.36,0,0,0,326.89,175l8.76-.14a43.36,43.36,0,0,0,3.92,6.77l-4.51,7.51a52.57,52.57,0,0,0,7.79,7.78l7.51-4.5a44.17,44.17,0,0,0,6.77,3.92l-.15,8.75a51.91,51.91,0,0,0,10.63,2.86l4.26-7.67c1.29.11,2.59.18,3.91.18s2.62-.07,3.91-.18l4.26,7.67a51.74,51.74,0,0,0,10.63-2.86l-.15-8.75a44.27,44.27,0,0,0,6.78-3.92l7.51,4.5a52,52,0,0,0,7.78-7.78l-4.5-7.51a45,45,0,0,0,3.92-6.77l8.75.14a51.09,51.09,0,0,0,2.85-10.63l-7.66-4.26c.11-1.28.18-2.59.18-3.91s-.07-2.62-.18-3.91l7.66-4.25A51.09,51.09,0,0,0,424.67,137.4Z" style="fill:#407BFF"></path><path d="M424.67,137.4l-8.75.14a45,45,0,0,0-3.92-6.77l4.5-7.51a52,52,0,0,0-7.78-7.78l-7.51,4.5a44.27,44.27,0,0,0-6.78-3.92l.15-8.76A52.36,52.36,0,0,0,384,104.45l-4.26,7.67c-1.29-.11-2.59-.18-3.91-.18s-2.62.07-3.91.18l-4.26-7.67A52.54,52.54,0,0,0,357,107.3l.15,8.76a44.17,44.17,0,0,0-6.77,3.92l-7.51-4.5a52.57,52.57,0,0,0-7.79,7.78l4.51,7.51a43.36,43.36,0,0,0-3.92,6.77l-8.76-.14A52.36,52.36,0,0,0,324,148l7.67,4.25c-.12,1.29-.19,2.6-.19,3.91s.07,2.63.19,3.91L324,164.36A52.36,52.36,0,0,0,326.89,175l8.76-.14a43.36,43.36,0,0,0,3.92,6.77l-4.51,7.51a52.57,52.57,0,0,0,7.79,7.78l7.51-4.5a44.17,44.17,0,0,0,6.77,3.92l-.15,8.75a51.91,51.91,0,0,0,10.63,2.86l4.26-7.67c1.29.11,2.59.18,3.91.18s2.62-.07,3.91-.18l4.26,7.67a51.74,51.74,0,0,0,10.63-2.86l-.15-8.75a44.27,44.27,0,0,0,6.78-3.92l7.51,4.5a52,52,0,0,0,7.78-7.78l-4.5-7.51a45,45,0,0,0,3.92-6.77l8.75.14a51.09,51.09,0,0,0,2.85-10.63l-7.66-4.26c.11-1.28.18-2.59.18-3.91s-.07-2.62-.18-3.91l7.66-4.25A51.09,51.09,0,0,0,424.67,137.4Z" style="fill:#fff;opacity:0.4"></path><circle cx="375.78" cy="156.19" r="26.26" style="opacity:0.2"></circle><path d="M389.75,161.65a3.67,3.67,0,0,0,0-4.89l-.07-.08,0-.05q-4.11-4.11-8.23-8.23c-3.3-3.3-8.43,1.82-5.12,5.13l2,2h-14c-4.66,0-4.67,7.25,0,7.25h14l-2,2c-3.31,3.31,1.82,8.43,5.12,5.13l8.23-8.23,0-.06Z" style="fill:#407BFF"></path><path d="M389.75,161.65a3.67,3.67,0,0,0,0-4.89l-.07-.08,0-.05q-4.11-4.11-8.23-8.23c-3.3-3.3-8.43,1.82-5.12,5.13l2,2h-14c-4.66,0-4.67,7.25,0,7.25h14l-2,2c-3.31,3.31,1.82,8.43,5.12,5.13l8.23-8.23,0-.06Z" style="opacity:0.4"></path><path d="M389.75,158.65a3.67,3.67,0,0,0,0-4.89l-.07-.08,0-.05q-4.11-4.11-8.23-8.23c-3.3-3.3-8.43,1.82-5.12,5.13l2,2h-14c-4.66,0-4.67,7.25,0,7.25h14l-2,2c-3.31,3.31,1.82,8.43,5.12,5.13l8.23-8.23,0-.06Z" style="fill:#407BFF"></path><path d="M389.16,100.77a62.56,62.56,0,0,1,6.59,2c.54.2.78-.67.24-.86a62.61,62.61,0,0,0-6.59-2c-.56-.13-.8.74-.24.87Z" style="fill:#407BFF"></path><path d="M335,116.24a58.64,58.64,0,0,1,40.79-17,.45.45,0,0,0,0-.9,59.63,59.63,0,0,0-41.43,17.3.45.45,0,0,0,.64.64Z" style="fill:#407BFF"></path></g><g id="freepik--gear-2--inject-21"><path d="M315.23,166.61a40.46,40.46,0,0,0,1.14-6.36l9.85-2.53c0-1.25,0-2.49,0-3.73l-9.9-2.4a41.35,41.35,0,0,0-3.41-12.4l7.26-7.12c-.59-1.1-1.22-2.17-1.89-3.22l-9.76,2.86a41.53,41.53,0,0,0-9.15-9l2.73-9.81c-1-.65-2.14-1.25-3.24-1.83l-7,7.36a41,41,0,0,0-6.1-2.11,40.54,40.54,0,0,0-6.35-1.14l-2.54-9.85c-1.25,0-2.49,0-3.72,0l-2.41,9.9a41.24,41.24,0,0,0-12.4,3.42l-7.12-7.27c-1.1.59-2.17,1.22-3.22,1.89l2.86,9.76a41.53,41.53,0,0,0-9,9.15L232,129.42c-.65,1.05-1.25,2.14-1.83,3.24l7.36,7a40.89,40.89,0,0,0-2.11,6.09,41.74,41.74,0,0,0-1.14,6.35l-9.85,2.54c0,1.25,0,2.49,0,3.73l9.9,2.4a41.24,41.24,0,0,0,3.42,12.4l-7.26,7.12c.59,1.1,1.21,2.17,1.88,3.22l9.76-2.86a41.53,41.53,0,0,0,9.15,9l-2.73,9.81c1.05.65,2.14,1.25,3.25,1.83l7-7.36a40.89,40.89,0,0,0,6.09,2.11,40.46,40.46,0,0,0,6.36,1.14l2.53,9.85c1.25,0,2.49,0,3.73,0l2.4-9.9a41.08,41.08,0,0,0,12.4-3.42l7.12,7.27c1.1-.59,2.17-1.22,3.22-1.89l-2.86-9.76a41.31,41.31,0,0,0,9-9.15l9.81,2.73c.65-1.05,1.25-2.14,1.83-3.25l-7.36-7A40.89,40.89,0,0,0,315.23,166.61Z" style="fill:#407BFF"></path><path d="M315.23,166.61a40.46,40.46,0,0,0,1.14-6.36l9.85-2.53c0-1.25,0-2.49,0-3.73l-9.9-2.4a41.35,41.35,0,0,0-3.41-12.4l7.26-7.12c-.59-1.1-1.22-2.17-1.89-3.22l-9.76,2.86a41.53,41.53,0,0,0-9.15-9l2.73-9.81c-1-.65-2.14-1.25-3.24-1.83l-7,7.36a41,41,0,0,0-6.1-2.11,40.54,40.54,0,0,0-6.35-1.14l-2.54-9.85c-1.25,0-2.49,0-3.72,0l-2.41,9.9a41.24,41.24,0,0,0-12.4,3.42l-7.12-7.27c-1.1.59-2.17,1.22-3.22,1.89l2.86,9.76a41.53,41.53,0,0,0-9,9.15L232,129.42c-.65,1.05-1.25,2.14-1.83,3.24l7.36,7a40.89,40.89,0,0,0-2.11,6.09,41.74,41.74,0,0,0-1.14,6.35l-9.85,2.54c0,1.25,0,2.49,0,3.73l9.9,2.4a41.24,41.24,0,0,0,3.42,12.4l-7.26,7.12c.59,1.1,1.21,2.17,1.88,3.22l9.76-2.86a41.53,41.53,0,0,0,9.15,9l-2.73,9.81c1.05.65,2.14,1.25,3.25,1.83l7-7.36a40.89,40.89,0,0,0,6.09,2.11,40.46,40.46,0,0,0,6.36,1.14l2.53,9.85c1.25,0,2.49,0,3.73,0l2.4-9.9a41.08,41.08,0,0,0,12.4-3.42l7.12,7.27c1.1-.59,2.17-1.22,3.22-1.89l-2.86-9.76a41.31,41.31,0,0,0,9-9.15l9.81,2.73c.65-1.05,1.25-2.14,1.83-3.25l-7.36-7A40.89,40.89,0,0,0,315.23,166.61Z" style="fill:#fff;opacity:0.2"></path><circle cx="275.32" cy="156.19" r="26.15" style="opacity:0.30000000000000004"></circle><path d="M287.89,161.25a3.3,3.3,0,0,0,0-4.4l-.06-.07,0,0-7.41-7.41c-3-3-7.58,1.64-4.61,4.61.61.62,1.23,1.23,1.84,1.84H265.05c-4.2,0-4.21,6.53,0,6.53h12.58c-.61.61-1.23,1.22-1.84,1.84-3,3,1.64,7.58,4.61,4.61l7.41-7.41a.1.1,0,0,0,0,0Z" style="fill:#407BFF"></path><path d="M287.89,161.25a3.3,3.3,0,0,0,0-4.4l-.06-.07,0,0-7.41-7.41c-3-3-7.58,1.64-4.61,4.61.61.62,1.23,1.23,1.84,1.84H265.05c-4.2,0-4.21,6.53,0,6.53h12.58c-.61.61-1.23,1.22-1.84,1.84-3,3,1.64,7.58,4.61,4.61l7.41-7.41a.1.1,0,0,0,0,0Z" style="opacity:0.4"></path><path d="M287.89,158.55a3.3,3.3,0,0,0,0-4.4l-.06-.07,0,0-7.41-7.41c-3-3-7.58,1.64-4.61,4.61.61.62,1.23,1.23,1.84,1.84H265.05c-4.2,0-4.21,6.53,0,6.53h12.58c-.61.61-1.23,1.22-1.84,1.84-3,3,1.64,7.58,4.61,4.61l7.41-7.41a.1.1,0,0,0,0-.05Z" style="fill:#407BFF"></path><path d="M275.32,210.59A55.42,55.42,0,0,1,239.47,197c-.44-.38-1.08.26-.64.64a56.43,56.43,0,0,0,36.49,13.86.45.45,0,0,0,0-.9Z" style="fill:#407BFF"></path><path d="M290.9,208.31a56.42,56.42,0,0,1-10.13,2c-.57.06-.57,1,0,.9a58.18,58.18,0,0,0,10.37-2,.45.45,0,0,0-.24-.87Z" style="fill:#407BFF"></path></g><g id="freepik--gear-1--inject-21"><path d="M221.92,139.91l-7.59.13a39.27,39.27,0,0,0-3.39-5.87l3.9-6.5a46.25,46.25,0,0,0-6.74-6.75l-6.51,3.91a37.54,37.54,0,0,0-5.87-3.4l.13-7.58a45,45,0,0,0-9.21-2.47L183,118c-1.12-.1-2.25-.16-3.39-.16s-2.27.06-3.39.16l-3.69-6.64a44.88,44.88,0,0,0-9.2,2.47l.12,7.58a37.9,37.9,0,0,0-5.86,3.4L151,120.92a45.28,45.28,0,0,0-6.74,6.75l3.9,6.5a38.47,38.47,0,0,0-3.4,5.87l-7.58-.13a45.14,45.14,0,0,0-2.47,9.21l6.64,3.69c-.1,1.11-.16,2.24-.16,3.38s.06,2.27.16,3.39l-6.64,3.69a45.14,45.14,0,0,0,2.47,9.21l7.58-.13a38.47,38.47,0,0,0,3.4,5.87l-3.9,6.5a44.74,44.74,0,0,0,6.74,6.74l6.51-3.9a37.9,37.9,0,0,0,5.86,3.4l-.12,7.58a44.88,44.88,0,0,0,9.2,2.47l3.69-6.64c1.12.1,2.25.16,3.39.16s2.27-.06,3.39-.16l3.68,6.64a45,45,0,0,0,9.21-2.47l-.13-7.58a37.54,37.54,0,0,0,5.87-3.4l6.51,3.9a45.69,45.69,0,0,0,6.74-6.74l-3.9-6.5a39.27,39.27,0,0,0,3.39-5.87l7.59.13a45.8,45.8,0,0,0,2.47-9.21l-6.64-3.69c.09-1.12.15-2.24.15-3.39s-.06-2.27-.15-3.38l6.64-3.69A45.8,45.8,0,0,0,221.92,139.91Z" style="fill:#407BFF"></path><path d="M221.92,139.91l-7.59.13a39.27,39.27,0,0,0-3.39-5.87l3.9-6.5a46.25,46.25,0,0,0-6.74-6.75l-6.51,3.91a37.54,37.54,0,0,0-5.87-3.4l.13-7.58a45,45,0,0,0-9.21-2.47L183,118c-1.12-.1-2.25-.16-3.39-.16s-2.27.06-3.39.16l-3.69-6.64a44.88,44.88,0,0,0-9.2,2.47l.12,7.58a37.9,37.9,0,0,0-5.86,3.4L151,120.92a45.28,45.28,0,0,0-6.74,6.75l3.9,6.5a38.47,38.47,0,0,0-3.4,5.87l-7.58-.13a45.14,45.14,0,0,0-2.47,9.21l6.64,3.69c-.1,1.11-.16,2.24-.16,3.38s.06,2.27.16,3.39l-6.64,3.69a45.14,45.14,0,0,0,2.47,9.21l7.58-.13a38.47,38.47,0,0,0,3.4,5.87l-3.9,6.5a44.74,44.74,0,0,0,6.74,6.74l6.51-3.9a37.9,37.9,0,0,0,5.86,3.4l-.12,7.58a44.88,44.88,0,0,0,9.2,2.47l3.69-6.64c1.12.1,2.25.16,3.39.16s2.27-.06,3.39-.16l3.68,6.64a45,45,0,0,0,9.21-2.47l-.13-7.58a37.54,37.54,0,0,0,5.87-3.4l6.51,3.9a45.69,45.69,0,0,0,6.74-6.74l-3.9-6.5a39.27,39.27,0,0,0,3.39-5.87l7.59.13a45.8,45.8,0,0,0,2.47-9.21l-6.64-3.69c.09-1.12.15-2.24.15-3.39s-.06-2.27-.15-3.38l6.64-3.69A45.8,45.8,0,0,0,221.92,139.91Z" style="fill:#fff;opacity:0.30000000000000004"></path><circle cx="179.57" cy="156.19" r="31.2" style="opacity:0.4"></circle><path d="M190.12,160.86a2.93,2.93,0,0,0,0-3.91l0-.07,0,0-6.59-6.58c-2.64-2.64-6.74,1.46-4.1,4.1L181,156H169.82c-3.74,0-3.74,5.8,0,5.8H181l-1.64,1.64c-2.64,2.64,1.46,6.74,4.1,4.1l6.59-6.59,0,0Z" style="fill:#407BFF"></path><path d="M190.12,160.86a2.93,2.93,0,0,0,0-3.91l0-.07,0,0-6.59-6.58c-2.64-2.64-6.74,1.46-4.1,4.1L181,156H169.82c-3.74,0-3.74,5.8,0,5.8H181l-1.64,1.64c-2.64,2.64,1.46,6.74,4.1,4.1l6.59-6.59,0,0Z" style="opacity:0.4"></path><path d="M190.12,158.46a2.93,2.93,0,0,0,0-3.91l0-.07,0,0-6.59-6.58c-2.64-2.64-6.74,1.46-4.1,4.1l1.64,1.63H169.82c-3.74,0-3.74,5.8,0,5.8H181L179.36,161c-2.64,2.64,1.46,6.74,4.1,4.1l6.59-6.59,0,0Z" style="fill:#407BFF"></path><path d="M140.13,128.23A49.57,49.57,0,0,1,179.57,108a.45.45,0,0,0,0-.9,50.49,50.49,0,0,0-40.21,20.67c-.35.46.43.91.77.45Z" style="fill:#407BFF"></path><path d="M185.93,108.42a51.92,51.92,0,0,1,6.2,1.24c.56.14.8-.73.24-.87a50,50,0,0,0-6.2-1.23c-.56-.08-.81.79-.24.86Z" style="fill:#407BFF"></path></g></svg>