<svg xmlns="http://www.w3.org/2000/svg" version="1.1" xmlns:xlink="http://www.w3.org/1999/xlink" xmlns:svgjs="http://svgjs.dev/svgjs" viewBox="0 0 2400 800" opacity="0.89"><defs><linearGradient x1="50%" y1="0%" x2="50%" y2="100%" id="sssurf-grad"><stop stop-color="hsl(208, 77%, 50%)" stop-opacity="1" offset="0%"></stop><stop stop-color="hsl(208, 74%, 93%)" stop-opacity="1" offset="100%"></stop></linearGradient></defs><g fill="url(#sssurf-grad)" transform="matrix(1,0,0,1,0,-155.26382446289062)"><path d="M 0 314.7126947570487 Q 800 450 800 325.93757949009773 Q 1600 450 1600 345.2379943981977 Q 2400 450 2400 305.52761753332226 L 2400 800 L 0 800 L 0 323.28823079505065 Z" transform="matrix(1,0,0,1,0,45)" opacity="0.05"></path><path d="M 0 314.7126947570487 Q 800 450 800 325.93757949009773 Q 1600 450 1600 345.2379943981977 Q 2400 450 2400 305.52761753332226 L 2400 800 L 0 800 L 0 323.28823079505065 Z" transform="matrix(1,0,0,1,0,90)" opacity="0.19"></path><path d="M 0 314.7126947570487 Q 800 450 800 325.93757949009773 Q 1600 450 1600 345.2379943981977 Q 2400 450 2400 305.52761753332226 L 2400 800 L 0 800 L 0 323.28823079505065 Z" transform="matrix(1,0,0,1,0,135)" opacity="0.32"></path><path d="M 0 314.7126947570487 Q 800 450 800 325.93757949009773 Q 1600 450 1600 345.2379943981977 Q 2400 450 2400 305.52761753332226 L 2400 800 L 0 800 L 0 323.28823079505065 Z" transform="matrix(1,0,0,1,0,180)" opacity="0.46"></path><path d="M 0 314.7126947570487 Q 800 450 800 325.93757949009773 Q 1600 450 1600 345.2379943981977 Q 2400 450 2400 305.52761753332226 L 2400 800 L 0 800 L 0 323.28823079505065 Z" transform="matrix(1,0,0,1,0,225)" opacity="0.59"></path><path d="M 0 314.7126947570487 Q 800 450 800 325.93757949009773 Q 1600 450 1600 345.2379943981977 Q 2400 450 2400 305.52761753332226 L 2400 800 L 0 800 L 0 323.28823079505065 Z" transform="matrix(1,0,0,1,0,270)" opacity="0.73"></path><path d="M 0 314.7126947570487 Q 800 450 800 325.93757949009773 Q 1600 450 1600 345.2379943981977 Q 2400 450 2400 305.52761753332226 L 2400 800 L 0 800 L 0 323.28823079505065 Z" transform="matrix(1,0,0,1,0,315)" opacity="0.86"></path><path d="M 0 314.7126947570487 Q 800 450 800 325.93757949009773 Q 1600 450 1600 345.2379943981977 Q 2400 450 2400 305.52761753332226 L 2400 800 L 0 800 L 0 323.28823079505065 Z" transform="matrix(1,0,0,1,0,360)" opacity="1.00"></path></g></svg>