<svg width="119" height="142" viewBox="0 0 119 142" fill="none" xmlns="http://www.w3.org/2000/svg">
<path d="M69 100C82.2608 100 94.9785 94.7322 104.355 85.3553C113.732 75.9785 119 63.2608 119 50C119 36.7392 113.732 24.0215 104.355 14.6447C94.9785 5.26785 82.2608 2.58198e-06 69 0L69 50L69 100Z" fill="#FECB3B"/>
<path d="M50 42C43.4339 42 36.9321 43.2933 30.8658 45.806C24.7995 48.3188 19.2876 52.0017 14.6447 56.6447C10.0017 61.2876 6.31876 66.7995 3.80602 72.8658C1.29329 78.9321 -2.08713e-07 85.4339 0 92C2.08713e-07 98.5661 1.29329 105.068 3.80602 111.134C6.31876 117.2 10.0017 122.712 14.6447 127.355C19.2876 131.998 24.7996 135.681 30.8658 138.194C36.9321 140.707 43.4339 142 50 142L50 92L50 42Z" fill="#F37164"/>
</svg>
